<?xml version="1.0" encoding="UTF-8"?><svg xmlns="http://www.w3.org/2000/svg" xmlns:xlink="http://www.w3.org/1999/xlink" contentScriptType="text/ecmascript" width="375" zoomAndPan="magnify" contentStyleType="text/css" viewBox="0 0 375 374.999991" height="374.999991" preserveAspectRatio="xMidYMid meet" version="1.0"><defs><clipPath id="clip-0"><path d="M 1.933594 6 L 374.683594 6 L 374.683594 370 L 1.933594 370 Z M 1.933594 6 " clip-rule="nonzero"/></clipPath></defs><g clip-path="url(#clip-0)"><path fill="rgb(100%, 100%, 100%)" d="M 188.308594 6.238281 C 85.378906 6.238281 1.933594 89.566406 1.933594 192.277344 C 1.933594 274.488281 55.363281 344.265625 129.394531 368.90625 C 138.691406 370.585938 145.300781 361.066406 145.300781 353.898438 C 145.300781 349.53125 145.414062 344.265625 145.300781 328.808594 C 93.441406 340.007812 77.203125 303.71875 77.203125 303.71875 C 68.691406 282.214844 58.386719 276.054688 58.386719 276.054688 C 41.472656 264.519531 59.617188 264.855469 59.617188 264.855469 C 78.324219 266.085938 87.953125 282.214844 87.953125 282.214844 C 102.292969 307.304688 134.660156 304.839844 145.300781 300.136719 C 145.300781 288.710938 146.53125 280.421875 149.667969 275.160156 C 91.089844 264.855469 59.167969 231.027344 59.28125 184.210938 C 59.394531 156.546875 68.914062 135.042969 84.371094 119.136719 C 77.648438 110.625 73.058594 81.503906 86.835938 63.582031 C 121.445312 63.582031 142.054688 88.558594 142.054688 88.558594 C 142.054688 88.558594 158.292969 81.503906 188.199219 81.503906 C 218.214844 81.503906 234.34375 88.222656 234.34375 88.222656 C 234.34375 88.222656 255.066406 63.582031 289.675781 63.582031 C 303.449219 81.503906 298.859375 110.625 293.480469 118.578125 C 308.265625 134.144531 317.339844 155.648438 317.339844 184.210938 C 317.339844 231.027344 285.53125 264.855469 227.0625 275.046875 C 230.761719 280.648438 231.320312 288.488281 231.320312 300.136719 C 231.320312 325 231.320312 347.738281 231.320312 353.898438 C 231.320312 361.066406 237.816406 370.699219 247.335938 368.90625 C 321.371094 344.152344 374.683594 274.488281 374.683594 192.277344 C 374.683594 89.566406 291.242188 6.238281 188.308594 6.238281 Z M 188.308594 6.238281 " fill-opacity="1" fill-rule="nonzero"/></g></svg>