<?xml version="1.0" encoding="UTF-8"?><svg xmlns="http://www.w3.org/2000/svg" xmlns:xlink="http://www.w3.org/1999/xlink" contentScriptType="text/ecmascript" width="375" zoomAndPan="magnify" contentStyleType="text/css" viewBox="0 0 375 374.999991" height="374.999991" preserveAspectRatio="xMidYMid meet" version="1.0"><defs><clipPath id="clip-0"><path d="M 7.265625 0 L 102 0 L 102 94 L 7.265625 94 Z M 7.265625 0 " clip-rule="nonzero"/></clipPath></defs><path fill="rgb(100%, 100%, 100%)" d="M 13.050781 375 L 95.566406 375 L 95.566406 118.203125 L 13.050781 118.203125 Z M 13.050781 375 " fill-opacity="1" fill-rule="nonzero"/><g clip-path="url(#clip-0)"><path fill="rgb(100%, 100%, 100%)" d="M 54.308594 0 C 28.402344 0 7.324219 21.0625 7.324219 46.949219 C 7.324219 72.835938 28.402344 93.894531 54.308594 93.894531 C 80.214844 93.894531 101.292969 72.835938 101.292969 46.949219 C 101.292969 21.0625 80.214844 0 54.308594 0 Z M 54.308594 0 " fill-opacity="1" fill-rule="nonzero"/></g><path fill="rgb(100%, 100%, 100%)" d="M 367.929688 195.730469 C 366.84375 147.871094 327.632812 110.386719 278.667969 110.386719 C 251.5625 110.386719 226.390625 122.386719 209.503906 142.9375 L 209.503906 118.203125 L 131.050781 118.203125 L 131.050781 375 L 213.566406 375 L 213.566406 226.5625 C 213.566406 206.789062 229.667969 190.695312 249.460938 190.695312 C 269.253906 190.695312 285.359375 206.785156 285.359375 226.5625 L 285.445312 375 L 367.957031 375 Z M 367.929688 195.730469 " fill-opacity="1" fill-rule="nonzero"/></svg>